<svg width="130" height="130" viewBox="0 0 130 130" fill="none" xmlns="http://www.w3.org/2000/svg">
<path d="M117.898 107.638H59.0729L55.28 41.8703L97.9591 40.635L98.1332 57.0768L98.4464 57.4074C98.7769 57.738 99.2641 58.1208 99.8731 58.5731C101.422 59.7388 104.014 61.6875 104.084 63.6188C104.118 64.8019 103.736 65.8284 102.97 66.6288C102.083 67.5509 100.743 68.0729 99.2815 68.0729C96.6368 68.0729 94.4794 65.7936 94.4794 63.0098H92.1654C92.1654 67.0811 95.3493 70.3869 99.2641 70.3869C101.352 70.3869 103.301 69.604 104.623 68.2469C105.841 66.9941 106.432 65.3761 106.38 63.5492C106.276 60.5044 103.248 58.2426 101.265 56.7289C100.952 56.5027 100.656 56.2765 100.43 56.0851L100.273 40.5654L110.817 40.2522C111.53 40.2348 112.087 39.6606 112.087 38.9473V32.9795C112.087 32.2835 111.53 31.692 110.817 31.6746L54.584 29.8825L54.0099 20H39.7776L39.2382 29.3953L26.9721 29.0126C26.6241 29.0126 26.2762 29.1344 26.0326 29.378C25.7716 29.6215 25.6324 29.9695 25.6324 30.3175V41.3831C25.6324 41.7311 25.7716 42.0791 26.0326 42.3227C26.2762 42.5662 26.6068 42.688 26.9374 42.688C26.9374 42.688 26.9547 42.688 26.9721 42.688L38.4901 42.3575L34.7146 107.638H12.3049C11.5916 107.638 11 108.229 11 108.943C11 109.656 11.5916 110.248 12.3049 110.248H117.916C118.629 110.248 119.221 109.656 119.221 108.943C119.221 108.229 118.629 107.638 117.916 107.638H117.898ZM53.9402 58.9907L55.5061 85.9936L39.708 71.2569L53.9576 59.0081L53.9402 58.9907ZM39.273 68.56L40.7172 43.6798L53.279 56.5201L39.2905 68.56H39.273ZM41.9524 22.314H49.4687L41.6219 28.2122L41.9698 22.314H41.9524ZM51.8872 23.3754L52.2526 29.8129L43.6923 29.5345L51.8872 23.3754ZM28.2248 31.6572L109.46 34.2322V37.6598L28.2248 40.026V31.6572ZM52.9485 41.9225L53.627 53.5623L42.5266 42.2183L52.9485 41.9225ZM38.9773 73.7275L55.1407 88.7948L37.1156 105.95L38.9773 73.7275ZM55.8193 91.3525L56.7588 107.638H38.7163L55.8193 91.3525Z" fill="#41BDEB"/>
</svg>
