<svg width="130" height="130" viewBox="0 0 130 130" fill="none" xmlns="http://www.w3.org/2000/svg">
<path d="M97.7397 96.6215H72.9811V92.8111L62.8203 97.8916L72.9811 102.972V99.1617H97.4091C100.176 99.1617 102.855 97.7002 104.021 95.1948C105.012 93.0721 104.873 90.7059 103.777 88.792L90.554 65.4602C90.206 64.8513 89.4405 64.6425 88.8141 64.9731C88.2052 65.321 87.9963 66.0866 88.3269 66.7129L101.428 89.8533C102.281 91.3496 102.35 93.2461 101.376 94.6728C100.523 95.9429 99.1316 96.6389 97.7049 96.6389L97.7397 96.6215Z" fill="#41BDEB"/>
<path d="M32.8774 99.1617H59.0104C59.7063 99.1617 60.2805 98.5876 60.2805 97.8916C60.2805 97.1956 59.7063 96.6215 59.0104 96.6215H33.121C31.3985 96.6215 29.7108 95.7515 28.9452 94.203C28.2667 92.8285 28.3363 91.2975 29.0496 90.0447L41.9769 67.2349L44.4998 68.679L45.0391 58.5181L36.5833 64.1901L39.7673 65.9996L26.9966 88.5658C25.6221 91.0017 25.6221 94.0813 27.2924 96.3431C28.6495 98.1874 30.7374 99.1965 32.9122 99.1965L32.8774 99.1617Z" fill="#41BDEB"/>
<path d="M83.856 53.6116L71.5029 31.7936C70.111 29.3229 67.3969 27.7396 64.5782 28.0354C62.2816 28.2964 60.3329 29.6187 59.2542 31.5152L46.4313 54.151C46.0833 54.76 46.2921 55.5429 46.9184 55.8909C47.5274 56.2389 48.3103 56.0301 48.6583 55.4037L61.3594 32.9767C62.2119 31.463 63.8474 30.4191 65.5873 30.5408C67.1184 30.6452 68.4408 31.5152 69.1541 32.7679L81.6639 54.847L78.5146 56.639L86.9705 62.311L86.4311 52.1501L83.8735 53.6116H83.856Z" fill="#41BDEB"/>
</svg>
