<svg width="130" height="130" viewBox="0 0 130 130" fill="none" xmlns="http://www.w3.org/2000/svg">
<path d="M59.0833 108.168L55.2038 41.4227L98.6756 40.1026L98.8527 56.9649L99.1716 57.2993C99.5081 57.6338 100.004 58.021 100.624 58.4786C102.201 59.6579 104.84 61.6293 104.911 63.5831C104.947 64.78 104.557 65.8185 103.777 66.6282C102.874 67.561 101.51 68.0891 100.022 68.0891C97.3292 68.0891 95.1326 65.7833 95.1326 62.967H92.7766C92.7766 67.0858 96.0184 70.4301 100.004 70.4301C102.13 70.4301 104.114 69.638 105.46 68.2651C106.7 66.9978 107.303 65.3608 107.249 63.5127C107.143 60.4324 104.061 58.1442 102.041 56.6129C101.722 56.3841 101.421 56.1552 101.191 55.9616L101.014 40.0322L111.997 39.6978V31.2666L54.4952 29.5241L53.9106 19.4912H39.42L38.8709 29.0489L24.15 28.6088V42.3732L38.1092 41.9508L34.2651 108.168H9.5V110.509H120.5V108.168H59.0833ZM55.4518 86.2539L39.3669 71.3454L53.8752 58.9539L55.4695 86.2715L55.4518 86.2539ZM38.924 68.6171L40.3944 43.4469L53.1843 56.4369L38.9418 68.6171H38.924ZM55.0798 89.1053L36.7274 106.46L38.6229 73.8624L55.0798 89.1053ZM53.5386 53.4622L42.0772 41.8276L52.83 41.4931L53.5209 53.4446L53.5386 53.4622ZM51.7672 22.9235L52.1392 29.4713L43.3527 29.2073L51.7494 22.9235H51.7672ZM49.2871 21.8498L41.2978 27.8167L41.6521 21.8498H49.3048H49.2871ZM26.5061 31.0202L109.659 33.5372V37.4448L26.5061 39.9618V31.0202ZM38.3217 108.168L55.753 91.6752L56.7095 108.168H38.304H38.3217Z" fill="url(#paint0_linear_37_115)"/>
<defs>
<linearGradient id="paint0_linear_37_115" x1="-81.6523" y1="-105.333" x2="123.095" y2="-101.955" gradientUnits="userSpaceOnUse">
<stop stop-color="#231F20"/>
<stop offset="0.14" stop-color="#201B1E"/>
<stop offset="0.28" stop-color="#170F1A"/>
<stop offset="0.38" stop-color="#0D0116"/>
<stop offset="0.41" stop-color="#0C041C"/>
<stop offset="0.45" stop-color="#0A0E2D"/>
<stop offset="0.49" stop-color="#081F4A"/>
<stop offset="0.54" stop-color="#043672"/>
<stop offset="0.59" stop-color="#0054A6"/>
<stop offset="0.66" stop-color="#005DAE"/>
<stop offset="0.8" stop-color="#0078C3"/>
<stop offset="0.96" stop-color="#00A3E6"/>
<stop offset="1" stop-color="#00AEEF"/>
</linearGradient>
</defs>
</svg>
