<svg width="130" height="130" viewBox="0 0 130 130" fill="none" xmlns="http://www.w3.org/2000/svg">
<path d="M125.391 32.9843H109.924V30.3049C109.924 29.5916 109.332 29 108.619 29C107.906 29 107.314 29.5916 107.314 30.3049V32.9843H91.8465C91.1332 32.9843 90.5416 33.5759 90.5416 34.2892C90.5416 35.0026 91.1332 35.5941 91.8465 35.5941H107.314V42.9538C103.782 43.3714 100.737 45.4071 98.98 48.3301H87.288C82.1902 41.2662 74.0301 37.0904 65.3481 37.0904C56.6661 37.0904 48.4887 41.2836 43.4083 48.3301H31.7163C29.9416 45.4245 26.9142 43.3714 23.3823 42.9538V35.5941H38.8498C39.5631 35.5941 40.1547 35.0026 40.1547 34.2892C40.1547 33.5759 39.5631 32.9843 38.8498 32.9843H23.3823V30.3049C23.3823 29.5916 22.7907 29 22.0773 29C21.364 29 20.7724 29.5916 20.7724 30.3049V32.9843H5.30491C4.59156 32.9843 4 33.5759 4 34.2892C4 35.0026 4.59156 35.5941 5.30491 35.5941H20.7724V42.9538C15.1526 43.5976 10.7855 48.3823 10.7855 54.1587C10.7855 60.3874 15.8486 65.4505 22.0773 65.4505C26.2357 65.4505 29.872 63.1712 31.8381 59.8133H51.2203C52.6644 63.38 55.396 66.2682 58.9106 67.9211V76.0985H52.3687C50.3852 76.0985 48.7671 77.7166 48.7671 79.7001V97.0467C48.7671 99.0302 50.3852 100.648 52.3687 100.648H78.3798C80.3633 100.648 81.9814 99.0302 81.9814 97.0467V79.7001C81.9814 77.7166 80.3633 76.0985 78.3798 76.0985H71.1942V68.1995C74.9697 66.651 77.9971 63.6062 79.5281 59.8133H98.893C100.842 63.1712 104.478 65.4505 108.654 65.4505C114.883 65.4505 119.946 60.3874 119.946 54.1587C119.946 48.3823 115.578 43.5976 109.959 42.9538V35.5941H125.426C126.14 35.5941 126.731 35.0026 126.731 34.2892C126.731 33.5759 126.14 32.9843 125.426 32.9843H125.391ZM22.0599 62.8407C17.2753 62.8407 13.3779 58.9433 13.3779 54.1587C13.3779 49.374 17.2753 45.4767 22.0599 45.4767C26.8446 45.4767 30.7419 49.374 30.7419 54.1587C30.7419 58.9433 26.8446 62.8407 22.0599 62.8407ZM79.3541 79.7001V97.0467C79.3541 97.6034 78.9018 98.0384 78.3625 98.0384H52.3512C51.7945 98.0384 51.3595 97.5861 51.3595 97.0467V79.7001C51.3595 79.1433 51.8119 78.7084 52.3512 78.7084H78.3625C78.9192 78.7084 79.3541 79.1607 79.3541 79.7001ZM77.6665 57.2034L77.3707 58.0908C76.118 61.8141 73.1602 64.7893 69.4543 66.0594L68.5669 66.3552V76.0985H61.5204V66.1812L60.7027 65.8506C57.2229 64.4587 54.5435 61.6401 53.3778 58.1082L53.082 57.2208H32.9516C33.23 56.2465 33.3866 55.2374 33.3866 54.1761C33.3866 53.0625 33.2126 51.9664 32.9168 50.9573H44.8176L45.2003 50.3831C49.7588 43.702 57.3099 39.7003 65.3829 39.7003C73.456 39.7003 80.9896 43.6846 85.5655 50.3831L85.9483 50.9573H97.8491C97.5359 51.9838 97.3793 53.0625 97.3793 54.1761C97.3793 55.2374 97.5359 56.2465 97.8143 57.2208H77.7013L77.6665 57.2034ZM117.318 54.1587C117.318 58.9433 113.421 62.8407 108.636 62.8407C103.852 62.8407 99.9544 58.9433 99.9544 54.1587C99.9544 49.374 103.852 45.4767 108.636 45.4767C113.421 45.4767 117.318 49.374 117.318 54.1587Z" fill="#41BDEB"/>
<path d="M65.3482 93.8279C68.3582 93.8279 70.794 91.3747 70.794 88.3821C70.794 85.3895 68.3408 82.9362 65.3482 82.9362C62.3556 82.9362 59.9023 85.3895 59.9023 88.3821C59.9023 91.3747 62.3556 93.8279 65.3482 93.8279ZM65.3482 85.5287C66.9141 85.5287 68.1842 86.7988 68.1842 88.3647C68.1842 89.9306 66.9141 91.2007 65.3482 91.2007C63.7823 91.2007 62.5122 89.9306 62.5122 88.3647C62.5122 86.7988 63.7823 85.5287 65.3482 85.5287Z" fill="#41BDEB"/>
</svg>
