<svg width="130" height="130" viewBox="0 0 130 130" fill="none" xmlns="http://www.w3.org/2000/svg">
<path d="M112.118 102.091C111.718 101.534 110.952 101.395 110.396 101.795C110.361 101.83 106.342 104.631 100.913 104.631C96.4765 104.631 92.3704 102.787 90.7871 101.986C90.3173 101.795 90.0564 101.673 90.0564 101.673C89.7606 101.534 89.43 101.534 89.1516 101.673C89.1516 101.673 88.9254 101.778 88.5775 101.917C86.9246 102.561 81.2526 104.631 77.4422 104.631C72.9359 104.631 65.7502 101.691 65.6806 101.673C65.3675 101.534 65.0195 101.534 64.7063 101.673C64.6367 101.708 57.538 104.631 52.9447 104.631C49.0996 104.631 43.5319 102.578 41.8443 101.934H41.8095C41.4615 101.76 41.2701 101.673 41.2701 101.673C40.9743 101.534 40.6438 101.534 40.3654 101.673C40.3654 101.673 40.0696 101.812 39.5824 102.021C38.0861 102.804 34.0844 104.648 29.4737 104.648C23.8365 104.648 20.061 101.865 20.0088 101.83C19.365 101.377 18.6517 101.604 18.2863 102.073C18.0775 102.334 18.0079 102.665 18.0427 102.996C18.0949 103.326 18.2515 103.605 18.5299 103.813C18.5821 103.848 23.0188 107.119 29.4737 107.119C35.0762 107.119 39.4085 104.927 40.7482 104.161C42.1227 104.753 47.9861 107.119 52.9273 107.119C57.8686 107.119 63.8189 104.718 65.1761 104.144C66.5332 104.718 72.5009 107.119 77.4074 107.119C82.3139 107.119 88.2121 104.735 89.604 104.161C90.9785 104.927 95.45 107.119 100.878 107.119C107.142 107.119 111.753 103.866 111.805 103.831C112.362 103.431 112.501 102.665 112.101 102.108L112.118 102.091Z" fill="#41BDEB"/>
<path d="M29.4907 97.3583C35.0757 97.3583 39.4254 95.1661 40.7651 94.4005C42.1396 94.9921 48.003 97.3583 52.9443 97.3583C57.8855 97.3583 63.8359 94.9573 65.193 94.3831C66.5501 94.9573 72.5179 97.3583 77.4244 97.3583C82.3308 97.3583 88.229 94.9747 89.621 94.3831C90.9955 95.1487 95.4669 97.3583 100.895 97.3583C107.159 97.3583 111.77 94.1048 111.822 94.07C112.379 93.6698 112.518 92.9042 112.118 92.3475C111.717 91.7907 110.952 91.6515 110.395 92.0517C110.36 92.0865 106.828 94.5049 101.939 94.8181C98.5117 88.311 91.0824 80.0639 80.2082 75.8882C79.6862 75.6794 79.1295 75.5054 78.5727 75.3315C78.5727 71.3297 79.4775 65.8491 81.2521 59.0114C83.079 51.9475 85.9498 47.0236 88.0202 44.118L88.1595 43.9092L88.3334 44.0832C88.6988 44.4138 89.0816 44.7966 89.4991 45.2141C92.0568 47.7718 94.249 50.8514 95.3625 53.4438C95.7105 54.2789 96.4587 54.8705 97.346 55.0445C98.2334 55.2185 99.1381 54.9401 99.7818 54.2963C101.313 52.7652 101.974 50.5208 101.644 47.9458C101.278 45.2141 99.7644 42.1346 97.4852 39.4725L97.1198 39.055L97.6592 39.1072C99.6948 39.3334 101.609 39.7335 103.07 40.2729C103.923 40.5861 104.862 40.4469 105.593 39.9075C106.324 39.3855 106.741 38.5156 106.707 37.6283C106.637 35.4708 105.436 33.4526 103.331 31.9389C100.739 30.0946 96.7893 29.0681 92.7179 29.2073C91.3956 29.2421 90.1081 29.3986 88.8728 29.677L88.7336 29.7118L88.6466 29.6074C87.8985 28.6331 87.0459 27.711 86.1064 26.8584C83.1138 24.1268 79.4252 22.3173 76.2586 22.039C73.6836 21.8128 71.4566 22.5783 69.9951 24.1616C69.3862 24.8228 69.1425 25.7449 69.3513 26.6322C69.5601 27.5022 70.1865 28.2155 71.039 28.5461C72.4831 29.0855 74.1882 30.0076 75.8585 31.1559L76.3282 31.4691L75.7715 31.5561C72.1177 32.0781 68.7946 33.5048 66.6719 35.4708C64.7755 37.2281 63.8359 39.3855 64.0273 41.543C64.1143 42.4477 64.6363 43.2307 65.4192 43.6657C66.2022 44.1006 67.1591 44.118 67.9594 43.7005C70.4475 42.4303 74.1186 41.4734 77.7375 41.1254C78.1725 41.0906 78.5901 41.0558 78.9903 41.0384L79.5296 41.0036L79.1643 41.4038C76.798 43.9614 73.4053 48.1371 70.6911 53.6004C67.0895 60.8035 64.5667 67.154 63.1574 72.5129L62.9486 73.3306L62.7398 72.5129C61.5915 67.9544 59.434 62.4911 56.3371 56.2798C53.7794 51.1819 50.5606 47.389 48.3162 45.0924L47.916 44.6922L48.4902 44.727C48.8034 44.7444 49.1339 44.7618 49.4645 44.7966C52.6311 45.0924 55.8151 45.9275 57.9725 47.0236C58.7729 47.4238 59.7298 47.4238 60.5128 46.9888C61.2957 46.5539 61.8176 45.7535 61.9046 44.8662C62.096 42.8653 61.2261 40.8644 59.4688 39.2464C57.7463 37.6457 55.0669 36.4104 52.1439 35.8536L51.6046 35.7492L52.0743 35.4534C53.2922 34.6879 54.4754 34.0789 55.5193 33.6787C56.3545 33.3656 56.9982 32.6522 57.207 31.7649C57.4158 30.8949 57.1722 29.9728 56.5632 29.2943C55.2061 27.8154 53.1705 27.102 50.7694 27.3108C47.916 27.5544 44.5928 29.1725 41.896 31.6431C41.1131 32.3564 40.3998 33.122 39.756 33.9397L39.669 34.0441L39.5298 34.0093C38.4859 33.8005 37.3897 33.6787 36.2936 33.6439C32.6747 33.5222 29.0731 34.4443 26.7417 36.1146C24.8104 37.5065 23.6969 39.3682 23.6273 41.3864C23.5925 42.2911 24.0101 43.1437 24.7408 43.6657C25.4716 44.1876 26.4111 44.3268 27.2637 44.031C28.325 43.6483 29.6473 43.3351 31.1088 43.1263L31.6482 43.0567L31.3176 43.4743C29.5429 45.7187 28.412 48.1893 28.1162 50.4338C27.803 52.8 28.412 54.8879 29.8387 56.2972C30.4824 56.9409 31.3872 57.2193 32.2745 57.0453C33.1618 56.8713 33.8926 56.2798 34.258 55.4446C35.2323 53.1828 37.1288 50.5208 39.3558 48.2763C39.7038 47.9284 40.017 47.6326 40.3128 47.3542L40.4867 47.1976L40.6259 47.3716C41.9483 49.0071 45.254 53.6004 47.1505 60.9253C48.7686 67.154 49.5167 72.0083 49.3775 75.3837C49.3775 75.5924 49.3601 75.8012 49.3427 75.9752H49.4645C40.2257 79.2114 31.6134 85.4576 28.0118 94.7833C23.1924 94.3657 20.0084 92.0691 19.9736 92.0517C19.3298 91.5993 18.6164 91.8255 18.2511 92.2953C18.0597 92.5563 17.9727 92.8868 18.0075 93.2174C18.0597 93.548 18.2337 93.8438 18.4947 94.0352C18.5469 94.07 22.9836 97.3409 29.4385 97.3409L29.4907 97.3583ZM86.1238 42.4651C85.48 43.3351 84.8537 44.292 84.2447 45.3011L84.1229 45.4925L80.7823 43.3525L80.9563 43.1611C81.6175 42.4477 82.2961 41.7518 82.9746 41.108L83.0442 41.0384H83.1486C83.6532 41.0732 84.1577 41.1254 84.6623 41.195L84.7493 41.2298C85.045 41.4212 85.5148 41.7344 86.089 42.1694L86.2629 42.2911L86.1412 42.4651H86.1238ZM77.5635 38.62C73.6314 38.9854 69.6471 40.0467 66.8807 41.456L66.6023 41.5952L66.5676 41.282C66.411 39.5595 67.4375 37.8545 69.4558 36.4452C71.4392 35.0706 74.1708 34.1659 77.1286 33.8875C79.1294 33.6961 82.1568 34.1833 83.4965 34.4095C82.7832 33.6439 82.035 32.8958 81.2695 32.1998C78.3639 29.5378 74.8842 27.2934 71.9786 26.1973L71.6828 26.0929L71.8916 25.8493C73.0573 24.5792 75.0233 24.179 77.407 24.7358C79.7558 25.2751 82.2613 26.6844 84.4535 28.6853C85.741 29.8684 86.8719 31.2081 87.7071 32.5652C89.273 32.0607 91.0303 31.7475 92.8223 31.6953C93.0311 31.6953 93.2573 31.6953 93.4661 31.6953C99.3469 31.6953 104.114 34.3225 104.219 37.7153V38.0284L103.923 37.9241C101 36.8627 96.9284 36.3234 92.9615 36.4452C91.9698 36.48 90.978 36.5495 89.9863 36.6713C91.6044 37.4891 93.2051 38.6548 94.6318 40.0815C96.7197 42.1868 98.2333 44.6226 98.8945 46.954C99.5556 49.3203 99.2425 51.3037 98.0245 52.5216L97.7984 52.7478L97.6766 52.452C96.4413 49.5812 94.0576 46.2059 91.2738 43.4395C88.4552 40.6209 86.6284 39.4725 85.7584 38.9158L85.567 38.794C84.1055 38.5852 81.1477 38.272 77.5462 38.62H77.5635ZM73.8924 52.9566C75.3365 50.3294 77.0764 47.7892 79.0251 45.4055L79.1468 45.2489L82.9224 47.6674L82.8354 47.8414C81.6871 50.0684 80.6954 52.4346 79.8776 54.8705L79.808 55.0793L73.7706 53.1828L73.8924 52.9566ZM68.5162 64.5442C69.6297 61.7604 70.9868 58.7504 72.5179 55.6186L72.6049 55.4446L79.0773 57.4803L79.0251 57.6891C78.9555 57.9153 78.9033 58.1415 78.8511 58.3676C78.1725 60.9601 77.6157 63.4307 77.1808 65.6925L77.146 65.9013L68.4292 64.8052L68.5336 64.5442H68.5162ZM67.4897 67.2062L76.711 68.3545L76.6762 68.5807C76.3283 70.8252 76.1369 72.8434 76.1021 74.6181C72.8311 73.8178 69.1774 73.3654 65.5758 73.3132C66.0456 71.4863 66.6719 69.4855 67.4375 67.3628L67.4897 67.2062ZM37.6508 46.5191C35.2149 48.9549 33.0922 51.9301 32.0135 54.4703L31.8917 54.7661L31.6656 54.5399C29.4559 52.3477 30.7956 47.4064 34.6582 43.5439C35.8935 42.3085 37.268 41.282 38.6773 40.5687C37.8247 40.4643 36.9722 40.4121 36.137 40.3773C32.6747 40.2555 29.0557 40.7427 26.4807 41.6822L26.1849 41.7866V41.4734C26.2893 38.4634 30.5172 36.132 35.7021 36.132C35.8934 36.132 36.0849 36.132 36.2762 36.132C37.8421 36.1842 39.3906 36.4452 40.7651 36.8975C41.5133 35.697 42.505 34.5139 43.6359 33.4874C47.6724 29.7988 52.6485 28.6853 54.7538 30.9819L54.9625 31.2255L54.6668 31.3299C52.1092 32.3042 49.047 34.2703 46.4893 36.6191C45.8282 37.2107 45.2018 37.8545 44.5755 38.5156C45.7934 38.3068 48.4032 37.9241 50.1257 38.0806C52.7355 38.3242 55.1365 39.1246 56.8938 40.3425C58.6859 41.5778 59.5906 43.1089 59.4515 44.6226L59.4166 44.9358L59.1382 44.7966C56.7024 43.5613 53.1878 42.6217 49.7255 42.2911C47.3766 42.065 44.8538 42.1346 42.6616 42.4477L42.505 42.5521C41.7394 43.0393 40.1214 44.0484 37.6508 46.5365V46.5191ZM46.8895 52.6956L46.8025 52.5042C45.8108 50.4686 44.6972 48.5721 43.4793 46.9192L42.4876 45.5795L42.6616 45.4577C42.9748 45.2141 43.2531 45.0402 43.4793 44.8836L43.5663 44.8488C43.7751 44.8314 44.0187 44.7966 44.2797 44.7792H44.3841L45.515 45.8231C46.6111 46.8496 48.2814 48.5547 50.0561 50.8688L50.2126 51.0775L46.8721 52.713L46.8895 52.6956ZM47.9682 55.1837L47.8986 54.9923L51.6916 53.1306L51.7959 53.2872C52.6659 54.6269 53.4662 55.984 54.1448 57.3585C54.632 58.3328 55.1017 59.3072 55.5541 60.2641L55.6585 60.4903L50.1604 62.4042L50.1083 62.178C49.9691 61.569 49.8125 60.9427 49.6385 60.2989C49.1861 58.5416 48.6294 56.8191 47.9682 55.1663V55.1837ZM50.7521 65.0662L50.7172 64.8748L56.7024 62.7869L56.7894 62.9783C58.8773 67.763 59.9386 71.2427 60.4953 73.5394C57.7115 73.8178 54.8234 74.3745 51.9352 75.2097C52.0048 72.565 51.622 69.1549 50.7694 65.0488L50.7521 65.0662ZM62.531 75.9926C68.3248 75.662 74.6058 76.5494 79.2687 78.3415C88.7684 81.9952 95.4321 88.9199 98.8945 94.7659C95.2755 94.3483 92.1264 92.9216 90.8041 92.2605C90.3343 92.0691 90.0733 91.9473 90.0733 91.9473C89.7775 91.8081 89.4469 91.8081 89.1686 91.9473C89.1686 91.9473 88.9424 92.0517 88.5944 92.1909C86.9415 92.8346 81.2695 94.9051 77.4592 94.9051C72.9529 94.9051 65.7672 91.9647 65.6976 91.9473C65.3844 91.8081 65.0365 91.8081 64.7233 91.9473C64.6537 91.9821 57.555 94.9051 52.9617 94.9051C49.0991 94.9051 43.5489 92.852 41.8612 92.2083H41.8265C41.4785 92.0343 41.2871 91.9473 41.2871 91.9473C40.9913 91.8081 40.6781 91.8081 40.3823 91.9473C40.3823 91.9473 40.104 92.0691 39.5994 92.2953C38.2423 93.0086 34.8843 94.5397 30.8652 94.8529C34.7625 86.1535 45.9326 76.9321 62.531 76.0274V75.9926Z" fill="#41BDEB"/>
</svg>
