<svg width="130" height="130" viewBox="0 0 130 130" fill="none" xmlns="http://www.w3.org/2000/svg">
<path d="M83.7285 46.7699L83.3458 46.7003L83.137 46.3697C83.137 46.3697 83.0674 46.2653 83.0326 46.2305C81.1187 43.6729 77.6738 41.2892 73.0109 39.271C68.1566 37.1657 62.9196 36 58.2567 36C57.8043 36.0348 57.4912 36.1914 57.265 36.4698C57.0562 36.7307 56.9518 37.0613 56.9866 37.4093C56.9866 37.5485 57.0388 37.6877 57.091 37.8095L61.0405 46.7351L59.9792 46.9438C51.68 48.6141 44.2855 51.9025 38.6309 56.4958L37.9871 57.0177L37.4303 56.4088C32.6979 51.137 24.9902 47.866 17.2825 47.866C16.4648 47.9356 15.9428 48.5619 16.0124 49.2753C16.0124 49.4493 16.082 49.6407 16.1864 49.7972C16.778 50.789 17.4217 51.8329 18.0829 52.9116C20.4317 56.722 23.0937 61.0369 24.4508 65.056L24.5378 65.3344L24.4508 65.6127C23.1111 69.6145 20.4665 73.8946 18.1177 77.6875C17.4565 78.7662 16.7954 79.8276 16.1864 80.8367C16.0124 81.1325 15.9602 81.4804 16.0298 81.811C16.1168 82.1416 16.3256 82.42 16.6214 82.6114C16.8302 82.7332 17.1433 82.8202 17.2825 82.8028C24.9902 82.8028 32.6979 79.5318 37.4303 74.2599L37.9871 73.651L38.6309 74.173C44.3203 78.7836 51.6974 82.1068 59.9792 83.7597L61.0405 83.9685L57.091 92.8419C56.9518 93.155 56.9344 93.503 57.0736 93.8336C57.1954 94.1468 57.439 94.4078 57.7521 94.5469C57.9087 94.6165 58.0827 94.6513 58.2567 94.6513C62.9022 94.6513 68.1392 93.4856 72.9935 91.3804C77.6216 89.3795 81.0665 86.9611 82.9804 84.4208L83.1892 84.1425L83.6589 83.9163C96.882 81.4631 107.669 74.9385 113.237 65.9781C113.48 65.5606 113.498 65.056 113.237 64.6384C107.704 55.7302 96.9342 49.2231 83.6937 46.7699H83.7285ZM60.3272 38.8012L61.8583 38.9926C65.6686 39.4624 69.0788 40.3497 72.0017 41.6198C73.672 42.3506 75.3249 43.2379 76.9082 44.2818L79.6572 46.0913L76.3862 45.8825C74.9421 45.7955 73.6372 45.7085 72.2975 45.7085C69.7747 45.7085 67.1649 45.8825 64.3289 46.2479L63.6851 46.3349L60.3272 38.8186V38.8012ZM35.5339 72.4853C32.2977 76.0346 27.0955 78.714 21.5974 79.6884L19.6662 80.0364L20.7101 78.3661C22.9545 74.7993 25.7384 70.3626 27.1477 65.6823C27.2173 65.4388 27.2173 65.1778 27.1477 64.9342C25.721 60.2017 22.9545 55.8172 20.7449 52.2853L19.701 50.615L21.6322 50.963C27.1129 51.9373 32.2977 54.6341 35.5339 58.1661L36.0906 58.775L35.5165 59.3666C33.8462 61.0891 32.4195 62.8637 31.3234 64.6384C31.0624 65.056 31.0624 65.5606 31.3234 65.9781C32.4543 67.805 33.881 69.5971 35.5165 71.2848L36.0906 71.8763L35.5339 72.4853ZM76.8386 86.4043C75.3423 87.3786 73.7068 88.266 71.9844 88.9967C69.1135 90.232 65.6164 91.1542 61.8757 91.6239L60.3446 91.8153L63.6677 84.3512L64.3115 84.4382C66.9213 84.7688 69.6181 84.9428 72.2801 84.9428C73.5502 84.9428 74.8726 84.908 76.2993 84.8036L79.5876 84.5948L76.8212 86.4043H76.8386ZM85.2074 80.9237C81.0143 81.8806 76.6646 82.3678 72.2801 82.3678C56.3254 82.3678 41.4495 75.878 34.3682 65.8215L34.0202 65.317L34.3682 64.8124C41.4321 54.7559 56.308 48.2661 72.2801 48.2661C76.6472 48.2661 80.9969 48.7533 85.2074 49.7102L86.234 49.9364L85.799 50.9108C83.8677 55.2953 82.8412 60.2713 82.8412 65.317C82.8412 70.3626 83.8677 75.3561 85.799 79.7232L86.234 80.6975L85.2074 80.9237ZM110.192 65.8215C105.842 71.9981 98.5001 76.9568 89.5223 79.7928L88.7916 80.019L88.461 79.323C86.4602 75.0951 85.4162 70.2582 85.4162 65.2996C85.4162 60.3409 86.4602 55.5214 88.4262 51.3109L88.7568 50.615L89.4875 50.8412C98.5175 53.6772 105.86 58.6358 110.192 64.7776L110.54 65.2822L110.192 65.7867V65.8215Z" fill="#41BDEB"/>
</svg>
