<svg width="130" height="130" viewBox="0 0 130 130" fill="none" xmlns="http://www.w3.org/2000/svg">
<path d="M91.6361 97.3476L74.6897 66.8475L74.8289 46.2822H78.2391C78.9524 46.2822 79.5266 45.708 79.5266 44.9947C79.5266 44.2813 78.9524 43.7072 78.2391 43.7072H52.6454C51.9321 43.7072 51.3579 44.2813 51.3579 44.9947C51.3579 45.708 51.9321 46.2822 52.6454 46.2822H56.0556L56.1948 66.8475L39.2484 97.3476C36.5863 102.132 38.3262 108.17 43.0935 110.832C44.555 111.649 46.2253 112.084 47.913 112.084H82.9715C88.4347 112.084 92.8888 107.63 92.8888 102.167C92.8888 100.497 92.4539 98.8265 91.6361 97.3476ZM58.6132 67.8045C58.7176 67.6131 58.7698 67.3869 58.7698 67.1607L58.6306 46.2822H72.2191L72.0799 67.1607C72.0799 67.3869 72.1321 67.6131 72.2365 67.8045L81.858 85.1337L79.8745 85.0815C74.8985 84.9423 69.9572 84.1593 65.19 82.75C64.32 82.4891 63.5545 82.2629 62.8411 82.0367C59.5179 81.0276 57.6911 80.4708 53.5154 80.349L51.6537 80.2968L58.5784 67.8219L58.6132 67.8045ZM89.2873 105.89C87.9824 108.117 85.5813 109.509 83.0063 109.509H47.913C43.8764 109.509 40.5881 106.221 40.5881 102.185C40.5881 100.949 40.9012 99.7139 41.5102 98.6351L50.2444 82.9066H50.9055C56.3862 82.837 58.735 83.5504 63.4675 84.9423L64.6158 85.2729C70.4792 86.978 76.5166 87.8131 82.6409 87.7261H83.3195L89.3917 98.6351C90.6618 100.897 90.627 103.681 89.3047 105.908L89.2873 105.89Z" fill="#41BDEB"/>
<path d="M59.5356 36.0169C62.7892 36.0169 65.4164 33.3723 65.4164 30.1187C65.4164 26.8651 62.7718 24.2205 59.5356 24.2205C56.2994 24.2205 53.6548 26.8651 53.6548 30.1187C53.6548 33.3723 56.2994 36.0169 59.5356 36.0169ZM59.5356 26.3257C61.6408 26.3257 63.3459 28.0308 63.3459 30.1361C63.3459 32.2413 61.6408 33.9464 59.5356 33.9464C57.4303 33.9464 55.7252 32.2413 55.7252 30.1361C55.7252 28.0308 57.4303 26.3257 59.5356 26.3257Z" fill="#41BDEB"/>
<path d="M65.7646 35.8255C65.7646 38.4005 67.8699 40.5058 70.4449 40.5058C73.02 40.5058 75.1252 38.4005 75.1252 35.8255C75.1252 33.2505 73.02 31.1452 70.4449 31.1452C67.8699 31.1452 65.7646 33.2505 65.7646 35.8255ZM70.4449 33.2331C71.8716 33.2331 73.0373 34.3988 73.0373 35.8255C73.0373 37.2522 71.8716 38.4179 70.4449 38.4179C69.0182 38.4179 67.8525 37.2522 67.8525 35.8255C67.8525 34.3988 69.0182 33.2331 70.4449 33.2331Z" fill="#41BDEB"/>
<path d="M66.8081 23.9247C68.7219 23.9247 70.2704 22.3762 70.2704 20.4624C70.2704 18.5485 68.7219 17 66.8081 17C64.8942 17 63.3457 18.5485 63.3457 20.4624C63.3457 22.3762 64.8942 23.9247 66.8081 23.9247ZM66.8081 19.0705C67.5736 19.0705 68.1826 19.6968 68.1826 20.445C68.1826 21.1931 67.5562 21.8195 66.8081 21.8195C66.0599 21.8195 65.4336 21.1931 65.4336 20.445C65.4336 19.6968 66.0599 19.0705 66.8081 19.0705Z" fill="#41BDEB"/>
</svg>
