<svg width="130" height="130" viewBox="0 0 130 130" fill="none" xmlns="http://www.w3.org/2000/svg">
<path d="M81.7965 40.9134L81.5877 40.7394L81.7965 40.5654C82.1445 40.287 82.4577 39.9564 82.736 39.5911C83.693 38.3906 84.1453 36.8943 84.0235 35.3806C83.8843 33.7973 83.1536 32.3532 81.9357 31.3266C80.7178 30.3001 79.2041 29.8129 77.586 29.9347L77.1858 29.9695L77.3598 29.6216C77.8817 28.5254 78.0558 27.3249 77.8644 26.1418C77.3598 22.8708 74.2976 20.5916 70.9918 21.0614L56.2725 23.1492C54.6892 23.3754 53.2451 24.2453 52.2881 25.5328C50.6005 27.7773 50.6874 30.8395 52.5143 32.9795L52.7753 33.2927L50.3047 33.6407C48.704 33.8147 47.2947 34.5976 46.303 35.8503C44.2499 38.4079 44.6675 42.1661 47.2425 44.2191L47.4513 44.3931L47.2425 44.5671C46.8945 44.8629 46.5987 45.1935 46.3203 45.5415C45.346 46.7942 44.9284 48.4297 45.1546 50.0129C45.3808 51.4918 46.129 52.8315 47.2773 53.7885L47.4861 53.9625L47.2773 54.1365C45.6766 55.4414 44.8588 57.5292 45.1546 59.5823C45.5896 62.6097 48.1646 64.8193 51.192 64.8193C51.2616 64.8193 51.3486 64.8193 51.4182 64.8193H51.5052L51.5748 64.8715C52.1663 65.3239 54.1498 67.2726 54.4978 73.1185V73.3621H50.7397C50.0263 73.3621 49.4347 73.9537 49.4347 74.667V95.4934C49.4347 99.2689 52.3055 102.331 55.8375 102.331H57.9775V102.836C57.9775 106.455 60.9179 109.412 64.5543 109.412C68.1906 109.412 71.131 106.472 71.131 102.836V102.331H73.2711C76.803 102.331 79.6738 99.2689 79.6738 95.4934V74.667C79.6738 73.9537 79.0823 73.3621 78.3689 73.3621H73.5147V73.1185C74.0018 68.5427 76.0549 64.2626 79.3085 61.0612L79.3607 61.009H79.4302C79.8652 60.9046 80.3002 60.748 80.7004 60.5566C82.997 59.3909 84.3193 56.9029 83.9713 54.3452C83.7625 52.8489 82.997 51.5092 81.8139 50.5523L81.6051 50.3783L81.8139 50.2043C82.1792 49.9086 82.5098 49.578 82.8056 49.2126C84.7891 46.6376 84.3715 43.0186 81.8661 40.9656L81.7965 40.9134ZM56.6378 25.6372L71.3572 23.5668H71.8966C73.619 23.5668 75.0631 24.8195 75.3241 26.5246C75.6025 28.4384 74.315 30.2131 72.4011 30.5437L57.6644 32.562H57.125C55.4025 32.562 53.9584 31.3092 53.6974 29.6042C53.4191 27.7077 54.7414 25.933 56.6204 25.6546L56.6378 25.6372ZM48.3212 37.5902C48.8606 36.8247 49.6609 36.3375 50.5657 36.1809L77.4468 32.5446C77.6208 32.5446 77.7774 32.5272 77.9514 32.5446C79.639 32.5446 81.1179 33.8321 81.3441 35.5371C81.5877 37.4162 80.3176 39.1039 78.4559 39.3997L51.1572 43.0708C49.4347 43.0708 48.008 41.8529 47.7296 40.1826C47.5731 39.2605 47.7818 38.3558 48.3212 37.5902ZM68.469 102.818C68.469 105.011 66.6943 106.785 64.5021 106.785C62.3098 106.785 60.5352 105.011 60.5352 102.818V102.314H68.4516V102.818H68.469ZM77.0118 75.9545V95.476C77.0118 97.8074 75.3067 99.7039 73.2189 99.7039H55.8027C53.7148 99.7039 52.0098 97.8074 52.0098 95.476V75.9545H77.0118ZM75.0284 61.9833C72.6795 65.2543 71.2702 69.0994 70.957 73.1359V73.3447H65.9114V73.1185C65.9462 69.7258 65.3024 66.4548 63.9801 63.3926L63.8583 63.1142L75.3241 61.5483L75.011 61.9833H75.0284ZM79.5346 58.26C79.1867 58.434 78.8387 58.5384 78.4559 58.5905L61.6313 60.8698C61.4747 60.9046 61.3007 60.9568 61.1615 61.0438C60.8657 61.2352 60.657 61.5135 60.57 61.8615C60.483 62.2095 60.5526 62.5575 60.7265 62.8533C62.5186 65.9502 63.4408 69.517 63.3538 73.1359V73.3621H57.125V73.1533C56.69 64.1582 52.4795 62.4357 52.3055 62.3661C52.0967 62.2791 51.8706 62.2443 51.6444 62.2791C49.8175 62.5053 48.1124 61.2874 47.7644 59.4953H47.6949L47.6601 59.3039C47.5383 58.4166 47.747 57.5292 48.269 56.7985C48.8258 56.0677 49.6435 55.5806 50.5483 55.4588L77.4816 51.718C79.3607 51.4918 81.1005 52.7968 81.3789 54.6758C81.5877 56.1547 80.8222 57.5988 79.4999 58.26H79.5346ZM80.7526 47.6293C80.1958 48.3601 79.3781 48.8472 78.4559 48.969L51.4878 52.6402C51.3312 52.6576 51.192 52.675 51.0354 52.675C49.3303 52.675 47.834 51.4049 47.6079 49.665C47.3469 47.7511 48.6866 46.0112 50.5657 45.7502L77.9688 42.0617C78.7343 42.0617 79.4303 42.3053 80.0392 42.7576C81.5877 43.906 81.9009 46.0982 80.7526 47.6293Z" fill="#41BDEB"/>
</svg>
