<svg width="130" height="130" viewBox="0 0 130 130" fill="none" xmlns="http://www.w3.org/2000/svg">
<path d="M34.4841 32.0508L49.534 36.0873C49.6558 36.1221 49.7602 36.1395 49.882 36.1395C50.1082 36.1395 50.3344 36.0873 50.5258 35.9655C50.8216 35.7916 51.0477 35.5132 51.1347 35.1652C51.2217 34.8346 51.1695 34.4692 50.9955 34.1735C50.8215 33.8777 50.5432 33.6515 50.1952 33.5645L35.1452 29.528C34.4145 29.3888 33.7359 29.7716 33.5445 30.4675C33.3531 31.1635 33.7707 31.8768 34.4667 32.0682L34.4841 32.0508Z" fill="#41BDEB"/>
<path d="M81.0612 36.1221C81.1656 36.1221 81.2874 36.1221 81.3918 36.0699L96.4244 32.0334C96.7549 31.9464 97.0507 31.7202 97.2247 31.4245C97.3987 31.1287 97.4508 30.7633 97.3639 30.4153C97.0855 29.4932 96.233 29.3714 95.7632 29.4932L80.7132 33.5297C80.0172 33.7211 79.6171 34.4345 79.7911 35.1304C79.9476 35.722 80.487 36.1047 81.0612 36.1047V36.1221Z" fill="#41BDEB"/>
<path d="M81.53 39.0452C81.182 39.0452 80.8515 39.1844 80.6079 39.4279C80.3643 39.6715 80.2251 40.0021 80.2251 40.3501C80.2251 40.6981 80.3643 41.0286 80.6079 41.2896C80.8515 41.5332 81.182 41.6724 81.53 41.6724H100.443C100.791 41.6724 101.121 41.5332 101.365 41.2896C101.608 41.046 101.747 40.7155 101.747 40.3501C101.747 40.0021 101.608 39.6715 101.365 39.4279C101.121 39.1844 100.791 39.0452 100.443 39.0452H81.53Z" fill="#41BDEB"/>
<path d="M80.7124 47.1704L95.7624 51.2069C95.8668 51.2417 95.9886 51.2591 96.1104 51.2591C96.3366 51.2591 96.5628 51.2069 96.7715 51.0851C97.0673 50.9111 97.2935 50.6327 97.3805 50.2848C97.4675 49.9542 97.4327 49.5888 97.2413 49.293C97.0673 48.9972 96.7889 48.7711 96.441 48.6841L81.4084 44.6476C80.6777 44.491 79.9991 44.8737 79.8077 45.5697C79.6163 46.2656 80.0339 46.979 80.7298 47.1704H80.7124Z" fill="#41BDEB"/>
<path d="M30.4822 41.6724H49.3946C49.7426 41.6724 50.0732 41.5332 50.3168 41.2896C50.5604 41.046 50.6995 40.7154 50.6995 40.3675C50.6995 39.6541 50.108 39.0626 49.3946 39.0626H30.4822C29.7688 39.0626 29.1772 39.6541 29.1772 40.3675C29.1772 41.0982 29.7688 41.6724 30.4822 41.6898V41.6724Z" fill="#41BDEB"/>
<path d="M49.5332 44.6301L34.4833 48.6667C33.7873 48.858 33.3697 49.5714 33.5611 50.2674C33.6481 50.5979 33.8743 50.8937 34.17 51.0677C34.3788 51.1895 34.605 51.2417 34.8312 51.2417C34.953 51.2417 35.0574 51.2417 35.1792 51.1895L50.2292 47.153C50.5597 47.066 50.8555 46.8398 51.0295 46.544C51.2035 46.2482 51.2557 45.8829 51.1687 45.5523C50.9251 44.6823 50.09 44.4736 49.568 44.6301H49.5332Z" fill="#41BDEB"/>
<path d="M115.719 110.641C115.51 110.363 115.214 110.171 114.866 110.102C114.518 110.032 114.171 110.119 113.892 110.328C113.857 110.363 109.542 113.373 103.714 113.373C98.9466 113.373 94.5447 111.389 92.857 110.537V105.195C92.8396 104.499 92.2654 103.925 91.5695 103.925H82.8005L75.7192 52.2334C76.9197 51.6419 77.6852 50.4239 77.6852 49.0842C77.6852 47.6749 76.8153 46.3874 75.493 45.8481V34.8346C76.7979 34.2953 77.6852 33.0252 77.6852 31.5984C77.6852 29.9108 76.45 28.4493 74.7797 28.1535L66.7588 20.1326V16.3049C66.7588 15.5916 66.1672 15 65.4539 15C65.1059 15 64.7753 15.1392 64.5318 15.3828C64.2882 15.6264 64.149 15.9569 64.149 16.3049V20.1326L56.1282 28.1535C54.4579 28.4493 53.2225 29.9108 53.2225 31.5984C53.2225 33.0078 54.0925 34.2953 55.4148 34.8346V45.8481C54.0925 46.3874 53.2225 47.6575 53.2225 49.0842C53.2225 50.4239 53.9881 51.6419 55.206 52.2334L48.1247 103.925H39.3557C38.6597 103.925 38.103 104.499 38.103 105.195V110.554H38.0682C36.4501 111.424 32.1874 113.373 27.2287 113.373C21.1914 113.373 17.1375 110.38 17.0853 110.345C16.4067 109.876 15.6585 110.119 15.2584 110.606C15.0496 110.885 14.9626 111.233 15.0148 111.581C15.067 111.929 15.241 112.242 15.5194 112.451C15.5716 112.485 20.3214 116 27.2287 116C33.2313 116 37.8942 113.651 39.3209 112.833C40.7824 113.46 47.0808 116 52.37 116C57.6592 116 64.062 113.425 65.4887 112.816C66.9328 113.425 73.3181 116 78.6074 116C83.8966 116 90.195 113.442 91.6739 112.816C93.1354 113.634 97.9201 116 103.749 116C110.465 116 115.388 112.503 115.441 112.468C115.719 112.259 115.91 111.963 115.98 111.616C116.032 111.268 115.963 110.92 115.754 110.641H115.719ZM72.9006 35.0956V45.5871H58.0246V35.0956H72.9006ZM74.2055 32.4684H56.7197C56.2151 32.4684 55.8324 32.0856 55.8324 31.5984C55.8324 31.1113 56.2151 30.7111 56.7197 30.7111H74.2055C74.71 30.7111 75.0928 31.0939 75.0928 31.5984C75.0928 32.103 74.71 32.4684 74.2055 32.4684ZM56.7197 48.2143H74.2055C74.71 48.2143 75.0928 48.5971 75.0928 49.0842C75.0928 49.5714 74.71 49.9716 74.2055 49.9716H56.7197C56.2151 49.9716 55.8324 49.5888 55.8324 49.0842C55.8324 48.5797 56.2151 48.2143 56.7197 48.2143ZM57.694 52.5814H73.2312L77.2329 81.8114H53.6749L57.6766 52.5814H57.694ZM52.7528 88.6839L53.3443 84.3342H77.5809L78.1724 88.6839H52.7354H52.7528ZM52.4048 91.2067H78.5378L80.2776 103.925H50.6649L52.4048 91.2067ZM59.8863 28.1013L65.4713 22.5337L71.0389 28.1013H59.8863ZM90.3342 106.448V110.537C88.4203 111.268 82.5395 113.373 78.59 113.373C73.7705 113.373 66.0629 110.224 65.9759 110.189C65.6453 110.05 65.2799 110.05 64.9493 110.189C64.8797 110.224 57.2765 113.373 52.3526 113.373C48.2987 113.373 42.5049 111.268 40.6084 110.537V106.465H90.3342V106.448Z" fill="#41BDEB"/>
</svg>
