<svg width="130" height="130" viewBox="0 0 130 130" fill="none" xmlns="http://www.w3.org/2000/svg">
<path d="M90.6575 48.8363C87.8215 44.2779 82.3409 40.9373 75.625 39.6846C75.625 39.6672 75.5902 39.6498 75.5728 39.615C74.5636 38.2753 72.7716 37.0226 70.3531 35.9786C68.5958 35.2131 65.8469 34.3083 62.7847 34.3083C62.7499 34.3083 62.6977 34.3083 62.6629 34.3083C61.9843 34.3779 61.4797 34.9869 61.5493 35.6655C61.5493 35.8046 61.6015 35.9264 61.6537 36.0482L63.3066 39.789C59.2353 40.6415 55.5816 42.277 52.763 44.5214C50.2923 41.842 46.3428 40.1891 42.4107 40.1891C42.3759 40.1891 42.3411 40.1891 42.2889 40.1891C41.6104 40.2587 41.1058 40.8677 41.1754 41.5462C41.1928 41.7202 41.245 41.8942 41.3319 42.0508C41.6277 42.5554 41.9583 43.0773 42.2889 43.5993C43.4372 45.4436 44.7247 47.5488 45.3859 49.4627C44.7421 51.3592 43.4546 53.447 42.3237 55.2739C41.9931 55.8133 41.6625 56.3526 41.3494 56.8572C41.0014 57.4487 41.1928 58.2143 41.7669 58.5623C41.9583 58.6841 42.1845 58.7363 42.4107 58.7363C46.3428 58.7363 50.2923 57.0834 52.763 54.404C55.599 56.6658 59.2353 58.3013 63.3066 59.1538L61.6537 62.8772C61.5145 63.1729 61.5146 63.5209 61.6364 63.8341C61.7582 64.1473 61.9843 64.3909 62.2975 64.5301C62.4541 64.5996 62.6281 64.6344 62.8021 64.6344C65.8642 64.6344 68.6133 63.7297 70.388 62.9642C72.789 61.9202 74.5811 60.6675 75.6076 59.3104C75.6076 59.3104 75.6076 59.293 75.6424 59.2756C82.3583 58.0229 87.8389 54.6649 90.6923 50.0891C90.9359 49.6889 90.9359 49.1843 90.6923 48.7841L90.6575 48.8363ZM88.0477 49.4975C85.9773 52.3857 82.5149 54.7171 78.3044 56.0742C77.3996 54.0908 76.9125 51.8115 76.9125 49.4975C76.9125 47.1835 77.3823 44.9216 78.287 42.9382C82.5323 44.2953 85.9947 46.6267 88.0477 49.4975ZM75.8512 56.718C73.8677 57.153 71.8146 57.3792 69.7616 57.3792C62.0713 57.3792 54.9204 54.2996 51.4755 49.5149C54.903 44.7302 62.0713 41.6506 69.7616 41.6506C71.8146 41.6506 73.8677 41.8768 75.8512 42.3118C74.9116 44.5214 74.4071 47.0095 74.4071 49.5323C74.4071 52.0551 74.9116 54.5431 75.8512 56.7528V56.718ZM69.3788 38.2579C69.9704 38.5189 70.5793 38.832 71.1535 39.18C69.4484 39.093 67.7607 39.1626 65.8468 39.3888L64.803 37.04C66.508 37.2835 68.0739 37.7011 69.3788 38.2579ZM47.8913 49.8455C47.9609 49.6019 47.9609 49.3583 47.8913 49.1321C47.2128 46.8529 45.9253 44.7476 44.8465 43.0251C47.2302 43.5297 49.4746 44.7128 50.9187 46.2265C50.101 47.0791 49.4224 47.949 48.8657 48.8363C48.6221 49.2365 48.6221 49.7411 48.8657 50.1413C49.4224 51.046 50.1184 51.9333 50.9187 52.7685C49.4746 54.2996 47.2302 55.4653 44.8291 55.9698C45.9252 54.23 47.2128 52.1073 47.8913 49.8455ZM64.8203 61.9376L65.8468 59.6236C67.1344 59.7802 68.4567 59.8672 69.7616 59.8672C70.1965 59.8672 70.6489 59.8672 71.1187 59.8324C70.5619 60.163 69.9704 60.4587 69.3788 60.7197C68.0739 61.2765 66.508 61.6941 64.8203 61.9376Z" fill="#41BDEB"/>
<path d="M50.4664 71.9767C50.4664 71.9767 50.4316 71.9246 50.4142 71.9072C49.405 70.5675 47.613 69.3147 45.1945 68.2708C42.7065 67.1921 40.0097 66.6005 37.6261 66.6005C37.6261 66.6005 37.5565 66.6005 37.5043 66.6005C37.1737 66.6353 36.8779 66.7919 36.6691 67.0529C36.4604 67.3139 36.356 67.6271 36.3908 67.9576C36.3908 68.0968 36.4429 68.2186 36.4951 68.3404L38.1481 72.0811C34.0767 72.9337 30.4404 74.5692 27.6044 76.8136C25.1338 74.1342 21.1842 72.4813 17.2521 72.4813C17.2173 72.4813 17.1651 72.4813 17.1303 72.4813C16.4517 72.5509 15.9472 73.1599 16.0168 73.8384C16.0342 74.0124 16.0864 74.1864 16.1734 74.343C16.4691 74.8476 16.7997 75.3695 17.1303 75.9089C18.2786 77.7532 19.5661 79.8584 20.2099 81.7723C19.5661 83.6861 18.2612 85.7566 17.1303 87.6009C16.7997 88.1402 16.4691 88.6622 16.1734 89.1668C15.8254 89.7583 16.0168 90.5239 16.6083 90.8718C16.7997 90.9936 17.0259 91.0458 17.2521 91.0458C21.1842 91.0458 25.1338 89.3929 27.6044 86.7135C30.4404 88.9754 34.0767 90.6109 38.1481 91.4634L36.4951 95.1867C36.2168 95.8131 36.4952 96.5612 37.1215 96.8396C37.2781 96.9092 37.4521 96.944 37.6261 96.944C40.0271 96.944 42.7065 96.3525 45.212 95.2737C47.613 94.2298 49.405 92.9771 50.4142 91.62C50.4142 91.62 50.4316 91.5852 50.449 91.5852C57.1649 90.3325 62.6456 86.9919 65.499 82.3986C65.7425 81.9985 65.7425 81.4939 65.499 81.0937C62.663 76.5352 57.1823 73.1947 50.4664 71.942V71.9767ZM62.8891 81.7897C60.8187 84.6779 57.3563 87.0093 53.1458 88.3664C52.2411 86.383 51.7539 84.1037 51.7539 81.7897C51.7539 79.4756 52.2237 77.2138 53.1284 75.2303C57.3737 76.5874 60.8361 78.9189 62.8891 81.7897ZM22.7327 81.4243C22.0367 79.1451 20.7666 77.0398 19.6879 75.3173C22.0715 75.8219 24.316 77.005 25.7601 78.5187C24.925 79.3886 24.2638 80.2412 23.707 81.1285C23.4634 81.5287 23.4634 82.0333 23.707 82.4334C24.2638 83.3382 24.9598 84.2255 25.7601 85.0606C24.316 86.5917 22.0716 87.7575 19.6705 88.262C20.7667 86.5221 22.0367 84.4169 22.7327 82.1376C22.8023 81.8941 22.8023 81.6505 22.7327 81.4243ZM50.6926 89.0102C48.7091 89.4451 46.656 89.6713 44.603 89.6713C36.9127 89.6713 29.7618 86.5917 26.3168 81.8071C29.7444 77.0224 36.9127 73.9428 44.603 73.9428C46.656 73.9428 48.7091 74.169 50.6926 74.604C49.753 76.8136 49.2485 79.3016 49.2485 81.8245C49.2485 84.3473 49.753 86.8353 50.6926 89.045V89.0102ZM39.6443 69.3321C41.3668 69.5757 42.8979 69.9759 44.2202 70.55C44.8118 70.811 45.4207 71.1242 45.9949 71.4722C45.5251 71.4548 45.0728 71.4374 44.603 71.4374C43.3677 71.4374 42.0802 71.5244 40.6883 71.6984L39.6443 69.3495V69.3321ZM39.6443 94.2298L40.6708 91.9158C41.9584 92.0724 43.2807 92.1594 44.5856 92.1594C45.0205 92.1594 45.4729 92.1594 45.9427 92.1246C45.3859 92.4551 44.7944 92.7509 44.2028 93.0119C42.8979 93.5687 41.332 93.9862 39.6443 94.2298Z" fill="#41BDEB"/>
<path d="M111.954 44.2257C111.554 43.9473 111.101 43.7385 110.649 43.5993L110.284 43.4949V26.3049C110.284 25.5916 109.692 25 108.979 25C108.265 25 107.674 25.5916 107.674 26.3049V43.4775L107.326 43.5993C105.36 44.2953 104.02 46.1743 104.02 48.2622V57.414C104.02 59.5018 105.36 61.3809 107.326 62.0768L107.674 62.1986V90.3499C107.674 90.8196 107.535 101.85 96.1731 101.85C84.8117 101.85 84.6725 90.8196 84.6725 90.3499V85.4608L88.1522 87.8618C88.7438 88.175 89.5267 87.9314 89.8747 87.3051C90.1705 86.7483 90.0313 86.0698 89.5442 85.6696L84.0983 82.0332C83.8896 81.8941 83.6459 81.8245 83.4024 81.8245C83.1936 81.8245 82.9848 81.8767 82.8108 81.9637C82.3932 82.1724 82.1149 82.59 82.0801 83.0598V90.3499C82.0801 95.2389 85.0378 104.46 96.1905 104.46C107.343 104.46 110.301 95.2215 110.301 90.3499V62.1986L110.649 62.0768C112.615 61.3809 113.955 59.5018 113.955 57.414V48.2622C113.955 46.9399 113.45 45.7046 112.511 44.765L111.971 44.2257H111.954ZM111.31 57.414C111.31 58.7189 110.249 59.7628 108.961 59.7628C107.674 59.7628 106.612 58.7015 106.612 57.414V48.2622C106.612 46.9573 107.674 45.9133 108.961 45.9133C109.605 45.9133 110.197 46.1917 110.632 46.6441C111.066 47.0617 111.31 47.6532 111.31 48.2796V57.414Z" fill="#41BDEB"/>
</svg>
