<svg width="130" height="130" viewBox="0 0 130 130" fill="none" xmlns="http://www.w3.org/2000/svg">
<path d="M121.009 63.3013C120.765 62.9185 120.348 62.6749 119.895 62.6749H107.02L99.1212 50.2174C98.8776 49.8346 98.46 49.6084 98.0251 49.6084H55.5547L48.6647 30.8525C48.4733 30.348 47.9861 30 47.4468 30H36.068C35.3546 30 34.7631 30.5916 34.7631 31.3049V49.6258H20.7222C20.0089 49.6258 19.4173 50.2174 19.4173 50.9307V71.4265H10.3004C9.90021 71.4265 9.53481 71.6005 9.29123 71.9137C9.04764 72.2269 8.94332 72.627 9.03031 73.0098L14.4239 98.4295C14.5457 99.021 15.085 99.456 15.694 99.456H102.549C103.036 99.456 103.488 99.1776 103.715 98.7426L121.078 64.5888C121.287 64.1886 121.27 63.7015 121.026 63.3187L121.009 63.3013ZM46.5247 32.6098L48.2993 37.4467H37.3555V32.6098H46.5073H46.5247ZM37.3729 40.0565H49.2737L52.7882 49.6258H37.3729V40.0565ZM22.0272 52.2357H97.3292L103.958 62.6923H92.0052C91.6572 62.6923 91.3266 62.8315 91.083 63.0751L82.7316 71.4265H22.0272V52.2357ZM101.748 96.8462H16.7554L15.1546 89.2951H105.594L101.748 96.8462ZM106.916 86.6853H14.5978L11.9185 74.0364H83.2709C83.6189 74.0364 83.9494 73.8972 84.193 73.6536L92.5445 65.3022H117.79L106.916 86.6853Z" fill="#41BDEB"/>
<path d="M30.1867 64.2756H34.3103C35.0236 64.2756 35.6152 63.684 35.6152 62.9707C35.6152 62.2573 35.0236 61.6658 34.3103 61.6658H30.1867C29.4734 61.6658 28.8818 62.2573 28.8818 62.9707C28.8818 63.684 29.4734 64.2756 30.1867 64.2756Z" fill="#41BDEB"/>
<path d="M41.8616 64.2756H45.9851C46.6984 64.2756 47.29 63.684 47.29 62.9707C47.29 62.2573 46.6984 61.6658 45.9851 61.6658H41.8616C41.1482 61.6658 40.5566 62.2573 40.5566 62.9707C40.5566 63.684 41.1482 64.2756 41.8616 64.2756Z" fill="#41BDEB"/>
<path d="M53.5193 64.2756H57.6429C58.3562 64.2756 58.9478 63.684 58.9478 62.9707C58.9478 62.2573 58.3562 61.6658 57.6429 61.6658H53.5193C52.8059 61.6658 52.2144 62.2573 52.2144 62.9707C52.2144 63.684 52.8059 64.2756 53.5193 64.2756Z" fill="#41BDEB"/>
<path d="M65.1765 64.2756H69.3C70.0133 64.2756 70.6049 63.684 70.6049 62.9707C70.6049 62.2573 70.0133 61.6658 69.3 61.6658H65.1765C64.4631 61.6658 63.8716 62.2573 63.8716 62.9707C63.8716 63.684 64.4631 64.2756 65.1765 64.2756Z" fill="#41BDEB"/>
<path d="M76.8513 64.2756H80.9748C81.6882 64.2756 82.2797 63.684 82.2797 62.9707C82.2797 62.2573 81.6882 61.6658 80.9748 61.6658H76.8513C76.1379 61.6658 75.5464 62.2573 75.5464 62.9707C75.5464 63.684 76.1379 64.2756 76.8513 64.2756Z" fill="#41BDEB"/>
</svg>
