<svg width="130" height="130" viewBox="0 0 130 130" fill="none" xmlns="http://www.w3.org/2000/svg">
<path d="M123.993 54.765L125.65 54.8537C125.985 54.8537 126.32 54.7472 126.567 54.5164C126.832 54.2856 126.973 53.966 126.99 53.611C127.026 52.8831 126.479 52.2794 125.774 52.2439L124.099 52.1552L123.922 51.8533C123.693 51.4628 123.323 51.2142 122.917 51.1964C122.494 51.1609 122.106 51.374 121.841 51.7468L121.63 52.0309L99.2527 50.8236L99.0763 50.4685C98.8647 50.0425 98.4415 49.7584 97.9654 49.7406C97.5246 49.7229 97.0837 49.9537 96.8368 50.3443L96.6252 50.6816L95.9904 50.6461C95.6554 50.6461 95.3203 50.7526 95.0735 50.9834C94.809 51.2142 94.6679 51.5338 94.6503 51.8888C94.615 52.599 95.144 53.2204 95.8494 53.2559L96.4842 53.2914L96.2726 61.1031L88.5843 60.5172L88.0905 45.1247L47.2333 42L33.0735 56.345L3.00806 54.0903L4.06608 56.1675C4.59509 57.215 17.2913 81.9282 44.553 86.1181H44.7646L118.703 88L126.303 63.3578L123.499 63.1447L124.01 54.765H123.993ZM99.1116 53.4157L121.418 54.6229L120.907 62.9494L98.8118 61.2806L99.1116 53.3979V53.4157ZM85.5866 47.5569L85.9921 60.3219L64.1087 58.6708L68.5172 46.2431L85.5866 47.5569ZM48.2208 44.6986L65.8721 46.0479L61.4637 58.4755L36.4768 56.5936L48.2208 44.6986ZM116.816 85.3369L44.9762 83.5261C24.3448 80.3481 12.4068 64.7426 8.22762 58.1737L7.50464 57.0552L122.864 65.7368L116.816 85.3369Z" fill="url(#paint0_linear_37_123)"/>
<defs>
<linearGradient id="paint0_linear_37_123" x1="-98.8066" y1="-21.0857" x2="129.65" y2="-12.7566" gradientUnits="userSpaceOnUse">
<stop stop-color="#231F20"/>
<stop offset="0.14" stop-color="#201B1E"/>
<stop offset="0.28" stop-color="#170F1A"/>
<stop offset="0.38" stop-color="#0D0116"/>
<stop offset="0.41" stop-color="#0C041C"/>
<stop offset="0.45" stop-color="#0A0E2D"/>
<stop offset="0.49" stop-color="#081F4A"/>
<stop offset="0.54" stop-color="#043672"/>
<stop offset="0.59" stop-color="#0054A6"/>
<stop offset="0.66" stop-color="#005DAE"/>
<stop offset="0.8" stop-color="#0078C3"/>
<stop offset="0.96" stop-color="#00A3E6"/>
<stop offset="1" stop-color="#00AEEF"/>
</linearGradient>
</defs>
</svg>
