<svg width="130" height="130" viewBox="0 0 130 130" fill="none" xmlns="http://www.w3.org/2000/svg">
<g clip-path="url(#clip0_37_108)">
<path d="M60.7583 87.0191C60.7583 87.6207 61.1272 88.1161 61.7068 88.2931C62.2864 88.47 62.866 88.2577 63.1997 87.7623L80.6932 61.3464C80.9742 60.9217 80.9918 60.4086 80.7634 59.984C80.5351 59.5417 80.096 59.2763 79.5867 59.2763H69.2592V40.0615C69.2592 39.3184 68.7323 38.8937 68.2932 38.7699C68.1878 38.7345 68.0649 38.7168 67.9243 38.7168C67.5379 38.7168 67.0813 38.876 66.8003 39.3714L49.3068 68.7244C49.0609 69.149 49.0433 69.6445 49.3068 70.0691C49.5702 70.4937 49.9742 70.7414 50.466 70.7414H60.7935V87.0191H60.7583ZM52.7668 68.0698L52.8898 67.8751L66.5895 44.874V60.6032C66.5895 61.3464 67.1867 61.9302 67.9068 61.9302H77.0926L76.9521 62.1426L63.4105 82.6135V69.4144C63.4105 68.6713 62.8133 68.0875 62.0932 68.0875H52.7844L52.7668 68.0698Z" fill="url(#paint0_linear_37_108)"/>
<path d="M33.4643 59.6478L28.4411 64.7081V64.3719C28.5992 54.6583 32.4808 45.5641 39.3482 38.7345C46.2332 31.9049 55.3312 28.154 64.9912 28.154C74.6513 28.154 83.9776 31.9934 90.8802 38.9822C91.3895 39.4953 92.2326 39.4953 92.7595 38.9822C93.0054 38.7345 93.1459 38.3983 93.1459 38.0445C93.1459 37.6906 93.0054 37.3544 92.7595 37.1067C85.3476 29.6225 75.4944 25.5 64.9912 25.5C54.4881 25.5 44.8456 29.534 37.4689 36.8767C30.0921 44.2017 25.947 53.986 25.789 64.4073V64.7258L20.7657 59.6655C20.5198 59.4178 20.1861 59.2763 19.8349 59.2763C19.4836 59.2763 19.1499 59.4178 18.904 59.6655C18.6581 59.9132 18.5176 60.2494 18.5176 60.6032C18.5176 60.9571 18.6581 61.2933 18.904 61.541L26.1929 68.8837C26.7023 69.3968 27.5629 69.3968 28.0723 68.8837L35.3612 61.541C35.6071 61.2933 35.7476 60.9571 35.7476 60.6032C35.7476 60.2494 35.6071 59.9132 35.3612 59.6655C34.8694 59.1524 33.9912 59.1524 33.4819 59.6655L33.4643 59.6478Z" fill="url(#paint1_linear_37_108)"/>
<path d="M111.114 68.459L103.825 61.1163C103.333 60.6032 102.455 60.6032 101.945 61.1163L94.6563 68.459C94.4104 68.7067 94.2699 69.0429 94.2699 69.3967C94.2699 69.7506 94.4104 70.0868 94.6563 70.3345C95.1657 70.8476 96.0087 70.8476 96.5356 70.3345L101.559 65.2742V65.6104C101.401 75.3239 97.5192 84.4182 90.6518 91.2478C83.7668 98.0774 74.6512 101.828 65.0087 101.828C55.3662 101.828 46.0575 97.9889 39.1549 91.0355C38.8914 90.7701 38.5577 90.6462 38.224 90.6462C37.8903 90.6462 37.539 90.7701 37.2931 91.0355C36.7838 91.5486 36.7838 92.3979 37.2931 92.9287C44.705 100.395 54.5407 104.5 65.0263 104.5C75.5118 104.5 85.1719 100.466 92.5487 93.1233C99.9254 85.7983 104.07 76.014 104.229 65.5927V65.2742L109.252 70.3345C109.761 70.8476 110.604 70.8476 111.131 70.3345C111.377 70.0868 111.518 69.7506 111.518 69.3967C111.518 69.0429 111.377 68.7067 111.131 68.459H111.114Z" fill="url(#paint2_linear_37_108)"/>
</g>
<defs>
<linearGradient id="paint0_linear_37_108" x1="22.9977" y1="-29.358" x2="81.676" y2="-28.8495" gradientUnits="userSpaceOnUse">
<stop stop-color="#231F20"/>
<stop offset="0.14" stop-color="#201B1E"/>
<stop offset="0.28" stop-color="#170F1A"/>
<stop offset="0.38" stop-color="#0D0116"/>
<stop offset="0.41" stop-color="#0C041C"/>
<stop offset="0.45" stop-color="#0A0E2D"/>
<stop offset="0.49" stop-color="#081F4A"/>
<stop offset="0.54" stop-color="#043672"/>
<stop offset="0.59" stop-color="#0054A6"/>
<stop offset="0.66" stop-color="#005DAE"/>
<stop offset="0.8" stop-color="#0078C3"/>
<stop offset="0.96" stop-color="#00A3E6"/>
<stop offset="1" stop-color="#00AEEF"/>
</linearGradient>
<linearGradient id="paint1_linear_37_108" x1="-42.7666" y1="-34.5253" x2="94.8552" y2="-31.3513" gradientUnits="userSpaceOnUse">
<stop stop-color="#231F20"/>
<stop offset="0.14" stop-color="#201B1E"/>
<stop offset="0.28" stop-color="#170F1A"/>
<stop offset="0.38" stop-color="#0D0116"/>
<stop offset="0.41" stop-color="#0C041C"/>
<stop offset="0.45" stop-color="#0A0E2D"/>
<stop offset="0.49" stop-color="#081F4A"/>
<stop offset="0.54" stop-color="#043672"/>
<stop offset="0.59" stop-color="#0054A6"/>
<stop offset="0.66" stop-color="#005DAE"/>
<stop offset="0.8" stop-color="#0078C3"/>
<stop offset="0.96" stop-color="#00A3E6"/>
<stop offset="1" stop-color="#00AEEF"/>
</linearGradient>
<linearGradient id="paint2_linear_37_108" x1="-24.355" y1="0.706155" x2="113.226" y2="3.87838" gradientUnits="userSpaceOnUse">
<stop stop-color="#231F20"/>
<stop offset="0.14" stop-color="#201B1E"/>
<stop offset="0.28" stop-color="#170F1A"/>
<stop offset="0.38" stop-color="#0D0116"/>
<stop offset="0.41" stop-color="#0C041C"/>
<stop offset="0.45" stop-color="#0A0E2D"/>
<stop offset="0.49" stop-color="#081F4A"/>
<stop offset="0.54" stop-color="#043672"/>
<stop offset="0.59" stop-color="#0054A6"/>
<stop offset="0.66" stop-color="#005DAE"/>
<stop offset="0.8" stop-color="#0078C3"/>
<stop offset="0.96" stop-color="#00A3E6"/>
<stop offset="1" stop-color="#00AEEF"/>
</linearGradient>
<clipPath id="clip0_37_108">
<rect width="93" height="79" fill="white" transform="translate(18.5 25.5)"/>
</clipPath>
</defs>
</svg>
