<svg width="130" height="130" viewBox="0 0 130 130" fill="none" xmlns="http://www.w3.org/2000/svg">
<path d="M83.9185 47.019L83.5307 46.9488L83.2133 46.4571C81.3269 43.9637 77.8891 41.5756 73.27 39.5914C68.4394 37.5018 63.221 36.3604 58.5843 36.3604L58.3904 35.4824L58.4785 36.3604C58.1435 36.3955 57.8438 36.5536 57.6323 36.8169C57.4207 37.0803 57.3149 37.414 57.3502 37.7476C57.3502 37.8881 57.4031 38.011 57.456 38.1339L61.3874 47.0015L60.312 47.2122C52.0436 48.8628 44.6919 52.1464 39.0503 56.6943L38.398 57.2211L37.8338 56.6065C33.1266 51.3914 25.44 48.1428 17.7886 48.1428C17.3302 48.178 17.0305 48.336 16.8189 48.5994C16.6074 48.8628 16.5016 49.1789 16.5368 49.53C16.5545 49.7056 16.6074 49.8812 16.6955 50.0393C17.2773 51.0226 17.9296 52.0586 18.5819 53.1297C20.9267 56.905 23.5888 61.1896 24.9111 65.1756L24.9992 65.4565L24.9111 65.7375C23.5712 69.7059 20.9267 73.9553 18.5995 77.7131C17.9296 78.7842 17.2773 79.8378 16.6779 80.8387C16.3077 81.4357 16.5016 82.2083 17.101 82.5771C17.2949 82.7 17.5241 82.7527 17.7533 82.7527C25.4223 82.7527 33.0914 79.5042 37.7986 74.289L38.3627 73.6744L39.015 74.2012C44.6742 78.7666 52.0259 82.0678 60.2768 83.7184L61.3522 83.9291L57.4207 92.744C57.2797 93.0601 57.2797 93.3937 57.4031 93.7098C57.5265 94.0259 57.7557 94.2717 58.073 94.4122C58.2317 94.4824 58.408 94.5175 58.5843 94.5175C63.2033 94.5175 68.4218 93.3762 73.2524 91.2866C77.8538 89.3024 81.2917 86.9143 83.1957 84.3857L83.4072 84.1047L83.8833 83.8765C97.0528 81.4533 107.789 74.9738 113.325 66.0887C113.572 65.6848 113.572 65.1756 113.325 64.7717C107.807 55.9393 97.0881 49.4949 83.9185 47.0541V47.019ZM60.5941 39.0821L62.1455 39.2753C65.9536 39.7494 69.3386 40.6274 72.2475 41.8741C73.9223 42.594 75.5619 43.4896 77.1486 44.5256L79.9342 46.3518L76.6197 46.1411C75.1917 46.0533 73.8871 45.983 72.5472 45.983C70.0437 45.983 67.4345 46.1586 64.6137 46.5098L63.9614 46.5976L60.6117 39.0997L60.5941 39.0821ZM35.9474 72.5155C32.7211 76.0274 27.5379 78.714 22.055 79.6797L20.0981 80.0309L21.1559 78.3452C23.3773 74.8158 26.1628 70.4083 27.5732 65.755C27.6437 65.5092 27.6437 65.2634 27.5732 65.0175C26.1452 60.3291 23.4125 55.9744 21.1911 52.4625L20.1334 50.7768L22.0903 51.128C27.5556 52.0937 32.7211 54.7803 35.9474 58.2922L36.5116 58.9068L35.9298 59.5039C34.2373 61.2422 32.8622 62.9455 31.7515 64.7366C31.5047 65.1405 31.5047 65.6497 31.7515 66.0536C32.8798 67.8622 34.2902 69.6357 35.9298 71.3214L36.5116 71.9184L35.9474 72.533V72.5155ZM77.0781 86.3348C75.5796 87.3006 73.9576 88.1786 72.2475 88.9161C69.3914 90.1452 65.9007 91.0583 62.1808 91.5149L60.6294 91.708L63.9438 84.2803L64.5961 84.3681C67.2053 84.7018 69.8675 84.8598 72.5296 84.8598C73.7989 84.8598 75.1212 84.8247 76.5316 84.7369L79.8636 84.5262L77.0605 86.3524L77.0781 86.3348ZM85.4171 80.9089C81.2388 81.8571 76.9018 82.3312 72.5296 82.3312C56.645 82.3312 41.8182 75.8869 34.7662 65.9131L34.4136 65.4039L34.7662 64.8946C41.8006 54.9208 56.6274 48.4765 72.5296 48.4765C76.8842 48.4765 81.2211 48.9506 85.3994 49.8988L86.4396 50.1271L85.9988 51.1104C84.0772 55.4476 83.0546 60.3818 83.0546 65.3863C83.0546 70.3908 84.0772 75.3425 85.9988 79.6622L86.4396 80.6455L85.3994 80.8738L85.4171 80.9089ZM110.293 65.9131C105.956 72.0414 98.6395 76.9756 89.7011 79.7851L88.9607 80.0134L88.6257 79.3286C86.6335 75.1318 85.5934 70.3381 85.5934 65.4214C85.5934 60.5047 86.6335 55.711 88.5905 51.5494L88.9254 50.847L89.6659 51.0753C98.6572 53.9024 105.974 58.8015 110.293 64.9122L110.646 65.4214L110.293 65.9306V65.9131Z" fill="url(#paint0_linear_37_119)"/>
<defs>
<linearGradient id="paint0_linear_37_119" x1="-63.1831" y1="-45.48" x2="115.739" y2="-41.5026" gradientUnits="userSpaceOnUse">
<stop stop-color="#231F20"/>
<stop offset="0.14" stop-color="#201B1E"/>
<stop offset="0.28" stop-color="#170F1A"/>
<stop offset="0.38" stop-color="#0D0116"/>
<stop offset="0.41" stop-color="#0C041C"/>
<stop offset="0.45" stop-color="#0A0E2D"/>
<stop offset="0.49" stop-color="#081F4A"/>
<stop offset="0.54" stop-color="#043672"/>
<stop offset="0.59" stop-color="#0054A6"/>
<stop offset="0.66" stop-color="#005DAE"/>
<stop offset="0.8" stop-color="#0078C3"/>
<stop offset="0.96" stop-color="#00A3E6"/>
<stop offset="1" stop-color="#00AEEF"/>
</linearGradient>
</defs>
</svg>
