<svg width="226" height="48" viewBox="0 0 226 48" fill="none" xmlns="http://www.w3.org/2000/svg">
<g clip-path="url(#clip0_3_3700)">
<path d="M162.396 41.16C162.396 43.4734 160.757 44.9134 157.804 44.9134C157.044 44.9134 156.508 44.86 156.072 44.7534V47.8067H154.975V37.7134H158.286C160.995 37.7134 162.396 39.18 162.396 41.16ZM161.246 41.16C161.246 39.84 160.42 38.7134 158.207 38.7134H156.072V43.7734C156.515 43.8667 157.044 43.92 157.804 43.92C160.235 43.92 161.246 42.8 161.246 41.16Z" fill="white"/>
<path d="M163.447 42.7667C163.447 39.8467 165.687 37.5734 168.621 37.5734C171.555 37.5734 173.809 39.8467 173.809 42.7667C173.809 45.6867 171.582 48 168.621 48C165.661 48 163.447 45.7134 163.447 42.7667ZM172.718 42.7667C172.718 40.4134 170.96 38.58 168.621 38.58C166.282 38.58 164.55 40.4134 164.55 42.7667C164.55 45.12 166.302 46.98 168.621 46.98C170.941 46.98 172.718 45.1334 172.718 42.7667Z" fill="white"/>
<path d="M182.003 47.8133L179.723 44.3266C179.307 44.3933 178.857 44.42 178.375 44.42C177.588 44.42 177 44.3533 176.518 44.2333V47.8133H175.421V37.72H179.075C181.758 37.72 183.067 38.9333 183.067 40.8933C183.067 42.4666 182.241 43.5466 180.774 44.0533L183.225 47.8066H181.996L182.003 47.8133ZM178.375 43.44C180.774 43.44 181.923 42.54 181.923 40.9066C181.923 39.6 181.177 38.7133 178.989 38.7133H176.524V43.26C177.007 43.3666 177.602 43.4333 178.381 43.4333L178.375 43.44Z" fill="white"/>
<path d="M186.417 38.74H183.681V37.72H190.23V38.74H187.507V47.8133H186.41V38.74H186.417Z" fill="white"/>
<path d="M191.267 43.5333V37.72H192.364V43.5733C192.364 45.6333 193.567 46.98 195.556 46.98C197.545 46.98 198.741 45.6333 198.741 43.5733V37.72H199.825V43.5333C199.825 46.32 198.146 48 195.556 48C192.966 48 191.274 46.32 191.274 43.5333H191.267Z" fill="white"/>
<path d="M202.389 42.9667C202.389 45.32 204.054 46.9667 206.724 46.9667C207.391 46.9667 208.046 46.8067 208.482 46.6467V42.7734H209.566V47.2934C209.162 47.5734 207.993 48.0067 206.684 48.0067C203.4 48.0067 201.266 45.88 201.266 42.9734C201.266 39.8534 203.559 37.5734 207.054 37.5734C208.125 37.5734 209.123 37.8267 209.724 38.1534V39.2C209.083 38.88 208.112 38.58 207.094 38.58C204.213 38.58 202.382 40.3734 202.382 42.9667H202.389Z" fill="white"/>
<path d="M217.383 45.04H213.008L211.872 47.8133H210.643L215.083 37.5867H215.295L219.735 47.8133H218.506L217.37 45.04H217.383ZM215.196 39.7133L213.392 44.0867H216.98L215.189 39.7133H215.196Z" fill="white"/>
<path d="M226 46.7867V47.8067H221.024V37.7134H222.121V46.7867H226.007H226Z" fill="white"/>
<path d="M176.326 20.6933C176.326 26.9733 171.72 31.62 165.535 31.62C159.35 31.62 154.988 27.0933 154.988 20.2066V0.393311H159.515V13.6066C160.929 11.3666 163.354 9.97998 166.546 9.97998C172.123 9.97998 176.326 14.5866 176.326 20.7V20.6933ZM171.641 20.7733C171.641 16.78 169.255 14.2466 165.542 14.2466C161.828 14.2466 159.482 16.8133 159.482 20.7733C159.482 24.7333 161.947 27.38 165.542 27.38C169.137 27.38 171.641 24.8133 171.641 20.7733Z" fill="white"/>
<path d="M178.811 26.6133V0.359985H183.661V26.0466C183.661 26.9867 184.144 27.3933 184.871 27.3933C185.274 27.3933 185.558 27.3533 185.802 27.1866V30.98C185.28 31.3467 184.388 31.5933 183.496 31.5933C180.549 31.5933 178.811 29.5533 178.811 26.62V26.6133Z" fill="white"/>
<path d="M188.525 22.7266V10.6133H193.375V22.8066C193.375 25.5399 195.034 27.3333 197.697 27.3333C200.36 27.3333 202.058 25.5399 202.058 22.8066V10.6133H206.909V22.7199C206.909 28.3066 203.354 31.6466 197.697 31.6466C192.04 31.6466 188.525 28.2999 188.525 22.7199V22.7266Z" fill="white"/>
<path d="M221.87 27.4C218.506 27.4 216.154 25.4133 215.486 22.5533H225.808V18.7H215.605C216.405 16.1 218.691 14.3133 221.876 14.3133C223.654 14.3133 225.068 14.8 225.795 15.2133L225.835 10.9733C224.744 10.4 223.046 10.0333 221.513 10.0333C215.044 10.0333 210.603 14.8467 210.603 20.84C210.603 26.8333 215.011 31.6867 221.513 31.6867C223.172 31.6867 224.83 31.28 225.835 30.7067L225.795 26.4667C225.068 26.9133 223.614 27.4067 221.876 27.4067L221.87 27.4Z" fill="white"/>
<path d="M0 4.78667C0 2.78667 1.25556 1.76667 3.07281 1.76667C4.89006 1.76667 6.14561 2.78667 6.14561 4.78667C6.14561 6.62 4.93632 7.68 3.07281 7.68C1.2093 7.68 0 6.62 0 4.78667ZM0.607953 10.6H5.45836V30.9867H0.607953V10.6ZM94.5896 22.7067V10.6H99.44V22.7933C99.44 25.5267 101.099 27.32 103.762 27.32C106.425 27.32 108.13 25.5267 108.13 22.7933V10.6H112.98V22.7067C112.98 28.2933 109.425 31.6333 103.768 31.6333C98.1117 31.6333 94.5962 28.2867 94.5962 22.7067H94.5896ZM117.87 30.0067V25.6867C119.04 26.54 121.267 27.4 123.606 27.4C126.355 27.4 127.406 26.42 127.406 25.16C127.406 24.1 126.758 23.5667 125.1 22.88L122.555 21.82C119.562 20.5533 117.91 18.9267 117.91 16.0267C117.91 12.7267 120.983 9.99333 126.031 9.99333C127.809 9.99333 129.752 10.52 130.598 11.0933V15.3733C129.468 14.8 127.968 14.2733 126.15 14.2733C123.97 14.2733 122.674 14.9667 122.674 16.1467C122.674 17.04 123.077 17.5333 124.452 18.1067L126.956 19.1267C130.313 20.4733 131.926 22.2667 131.926 25.24C131.926 28.2133 129.296 31.64 123.639 31.64C121.095 31.64 118.954 30.9067 117.857 30.0067H117.87ZM20.188 9.94667C25.8446 9.94667 29.3998 13.2933 29.3998 18.8733V30.98H24.5494V18.7867C24.5494 16.0533 22.8511 14.26 20.188 14.26C17.5249 14.26 15.8663 16.0533 15.8663 18.7867V30.98H11.0158V18.8733C11.0158 13.2867 14.5314 9.94667 20.188 9.94667ZM81.4525 10.6V7.46C81.4525 2.89333 84.2015 0 88.9264 0C90.1423 0 91.0674 0.16 91.8736 0.486667V4.48C91.2657 4.27333 90.4991 4.15333 89.5277 4.15333C87.2677 4.15333 86.217 5.37333 86.217 7.54V10.6H91.6291V14.88H86.217V30.9867C86.217 36.4067 83.8315 39.7533 78.8225 39.7533C77.8114 39.7533 76.9259 39.5933 76.1924 39.2667L76.2717 35.0667C76.8796 35.3133 77.4413 35.4333 78.1682 35.4333C80.7983 35.4333 81.4393 33.8 81.4393 31.0333V10.6H81.4525ZM146.094 27.4C142.73 27.4 140.378 25.4133 139.71 22.5533H150.032V18.7H139.829C140.629 16.1 142.915 14.3133 146.1 14.3133C147.878 14.3133 149.292 14.8 150.019 15.2133L150.059 10.9733C148.968 10.4 147.27 10.0333 145.737 10.0333C139.268 10.0333 134.827 14.8467 134.827 20.84C134.827 26.8333 139.234 31.6867 145.737 31.6867C147.396 31.6867 149.054 31.28 150.059 30.7067L150.019 26.4667C149.292 26.9133 147.838 27.4067 146.1 27.4067L146.094 27.4ZM67.0334 10.0333C61.172 10.0333 56.2423 14.64 56.2423 20.84C56.2423 27.04 61.172 31.6867 67.0334 31.6867C72.8949 31.6867 77.8643 27 77.8643 20.84C77.8643 14.68 72.9742 10.0333 67.0334 10.0333ZM67.0334 27.4C63.6368 27.4 60.9341 24.7533 60.9341 20.8333C60.9341 16.9133 63.6435 14.3067 67.0334 14.3067C70.4234 14.3067 73.1328 16.8733 73.1328 20.8333C73.1328 24.7933 70.549 27.4 67.0334 27.4ZM43.3761 9.95333C49.0327 9.95333 52.588 13.3 52.588 18.88V30.9867H47.7375V18.7933C47.7375 16.06 46.0392 14.2667 43.3761 14.2667C40.713 14.2667 39.0544 16.06 39.0544 18.7933V30.9867H34.204V18.88C34.204 13.2933 37.7195 9.95333 43.3761 9.95333Z" fill="white"/>
</g>
<defs>
<clipPath id="clip0_3_3700">
<rect width="226" height="48" fill="white"/>
</clipPath>
</defs>
</svg>
