<svg width="130" height="130" viewBox="0 0 130 130" fill="none" xmlns="http://www.w3.org/2000/svg">
<g clip-path="url(#clip0_37_127)">
<path d="M67.3647 43.2666C64.566 43.2666 61.9444 44.3357 59.9782 46.2987C58.012 48.2442 56.9138 50.8557 56.9138 53.6075C56.9138 56.3767 57.9943 58.9707 59.9782 60.9162C61.9444 62.8617 64.5837 63.9484 67.3647 63.9484C73.1215 63.9484 77.8156 59.3037 77.8156 53.6075C77.8156 47.9112 73.1215 43.2666 67.3647 43.2666ZM75.2294 53.6075C75.2294 57.8841 71.7045 61.3895 67.3647 61.3895C65.2568 61.3895 63.2906 60.5832 61.8027 59.1109C60.3148 57.6387 59.5 55.6932 59.5 53.6075C59.5 49.3134 63.0249 45.8255 67.3647 45.8255C71.7045 45.8255 75.2294 49.3134 75.2294 53.6075Z" fill="url(#paint0_linear_37_127)"/>
<path d="M103.465 53.1167C103.057 44.8264 99.6386 36.9568 93.8463 30.9626L93.6869 30.8049C89.7723 26.7737 84.9011 23.6013 79.5871 21.6733C69.1185 17.8349 58.0831 19.1319 49.3327 25.1962C39.7674 31.8039 34.6128 43.0387 35.8705 54.5189L26.7481 71.8004C26.1813 72.8521 26.6064 74.1666 27.6692 74.7274C27.8109 74.7976 27.9703 74.8677 28.1298 74.9027L35.8528 76.9008L36.7562 93.8318C36.8979 96.4258 38.9703 98.5291 41.5919 98.7219C44.8157 98.9322 48.0219 98.6518 51.1571 97.9156V109.221C51.1571 109.922 51.7417 110.5 52.4502 110.5H90.1265C90.4808 110.5 90.7996 110.36 91.0476 110.132C91.2956 109.887 91.4196 109.571 91.4196 109.221C91.4196 108.993 91.3665 108.782 91.2425 108.59C88.8866 104.541 86.5307 99.8436 86.0879 90.9048C85.9639 89.0645 86.4776 87.2242 87.5404 85.6993C89.8785 82.2115 92.695 79.0566 95.9011 76.3049C95.9719 76.2523 96.0251 76.1822 96.0782 76.1296C101.251 69.5921 103.872 61.4245 103.465 53.1342V53.1167ZM83.5017 91.01C83.9268 99.3528 85.9462 104.26 87.9124 107.924H53.7433V96.233C53.7433 96.1103 53.7433 96.0052 53.6901 95.8825C53.6016 95.5495 53.3713 95.2866 53.0702 95.1113C52.769 94.936 52.4148 94.901 52.0782 95.0062C48.7127 95.9877 45.2409 96.3733 41.7513 96.1454C40.4228 96.0578 39.3777 95.0061 39.3069 93.6741L38.3504 75.7966C38.3149 75.2357 37.9252 74.7625 37.3938 74.6223L29.2457 72.5191L38.3149 55.3076C38.4389 55.0797 38.4744 54.8168 38.4566 54.5539C37.1459 43.88 41.8753 33.3989 50.7851 27.2469C58.9687 21.6558 69.4019 20.4464 78.666 24.0219C88.9752 27.7377 96.8753 36.2032 99.8335 46.6493C102.349 56.3417 100.259 66.4547 94.0943 74.3944C90.7465 77.2689 87.8238 80.5639 85.3793 84.2095C84.0154 86.1901 83.3423 88.5913 83.484 90.9749L83.5017 91.01Z" fill="url(#paint1_linear_37_127)"/>
<path d="M88.7094 48.5597L84.6176 47.5607C84.405 46.9648 84.157 46.3688 83.8736 45.7905L86.0523 42.2325C86.3535 41.7242 86.2826 41.0757 85.8575 40.6551L80.4372 35.2918C80.0121 34.8712 79.3567 34.8011 78.8607 35.099L75.2649 37.2548C74.6804 36.9744 74.0781 36.729 73.4759 36.5187L72.4662 32.47C72.3245 31.8916 71.8108 31.506 71.2085 31.506H63.5387C62.9364 31.506 62.4227 31.9091 62.281 32.47L61.2714 36.5187C60.6514 36.729 60.0491 36.9744 59.4646 37.2548L55.8688 35.099C55.3551 34.7835 54.6997 34.8712 54.2746 35.2918L48.8543 40.6551C48.4292 41.0757 48.3583 41.7242 48.6594 42.215L50.8382 45.7729C50.5548 46.3513 50.3068 46.9472 50.0942 47.5432L46.0024 48.5422C45.4179 48.6824 45.0282 49.1907 45.0282 49.7866V57.3758C45.0282 57.9717 45.4356 58.48 46.0024 58.6202L50.0942 59.6192C50.3068 60.2151 50.5548 60.8111 50.8382 61.3895L48.6594 64.9474C48.3583 65.4557 48.4292 66.1042 48.8543 66.5249L54.2746 71.8881C54.6997 72.3088 55.3551 72.3789 55.8688 72.0809L59.4646 69.9251C60.0491 70.2055 60.6514 70.4509 61.2714 70.6612L62.281 74.7099C62.4227 75.2883 62.9364 75.6739 63.5387 75.6739H71.2085C71.8108 75.6739 72.3245 75.2708 72.4662 74.7099L73.4759 70.6612C74.0781 70.4509 74.6981 70.2055 75.2649 69.9251L78.8607 72.0809C79.3744 72.3789 80.0298 72.3088 80.4372 71.8881L85.8575 66.5249C86.2826 66.1042 86.3535 65.4557 86.0523 64.965L83.8736 61.407C84.157 60.8286 84.405 60.2327 84.6176 59.6368L88.7094 58.6377C89.2939 58.4975 89.7013 57.9892 89.6836 57.3933V49.8041C89.6836 49.2082 89.2762 48.6999 88.6916 48.5597H88.7094ZM82.3857 58.182C82.1023 59.111 81.7126 60.0048 81.252 60.8636C81.0395 61.2668 81.0572 61.74 81.2875 62.1256L83.3068 65.4382L79.3213 69.3818L75.9734 67.3837C75.5838 67.1558 75.1055 67.1383 74.6981 67.3486C73.8301 67.8043 72.9267 68.1724 71.9879 68.4704C71.5628 68.593 71.2263 68.9436 71.1023 69.3818L70.1635 73.1325H64.5306L63.5918 69.3818C63.4855 68.9436 63.149 68.593 62.7239 68.4704C61.785 68.1899 60.8817 67.8043 60.0137 67.3486C59.624 67.1383 59.128 67.1558 58.7383 67.3837L55.3905 69.3818L51.405 65.4382L53.4243 62.1256C53.6546 61.74 53.6723 61.2492 53.4598 60.8636C52.9992 60.0048 52.6272 59.111 52.3438 58.182C52.2021 57.7614 51.8478 57.4284 51.4227 57.3057L47.6321 56.3767V50.7856L51.4227 49.8567C51.8656 49.7516 52.2198 49.4185 52.3438 48.9979C52.6272 48.069 53.0169 47.1751 53.4775 46.3163C53.69 45.9131 53.6723 45.4399 53.442 45.0543L51.4227 41.7417L55.4082 37.7982L58.7561 39.7962C59.1457 40.0241 59.6417 40.0416 60.0314 39.8313C60.8994 39.3756 61.8028 39.0075 62.7416 38.7096C63.1667 38.5693 63.5032 38.2188 63.6095 37.7982L64.5483 34.0474H70.1812L71.12 37.7982C71.2263 38.2363 71.5628 38.5869 72.0057 38.7096C72.9445 38.99 73.8478 39.3756 74.7158 39.8138C75.1232 40.0241 75.6015 40.0066 75.9912 39.7787L79.339 37.7806L83.3245 41.7242L81.3052 45.0368C81.0749 45.4224 81.0572 45.8956 81.2697 46.2987C81.7303 47.1576 82.1023 48.0514 82.3857 48.9804C82.5097 49.4185 82.8817 49.7516 83.3068 49.8567L87.0974 50.7856V56.3767L83.3068 57.3057C82.8639 57.4108 82.5097 57.7438 82.3857 58.1645V58.182Z" fill="url(#paint2_linear_37_127)"/>
</g>
<defs>
<linearGradient id="paint0_linear_37_127" x1="39.7495" y1="14.9029" x2="78.3076" y2="15.43" gradientUnits="userSpaceOnUse">
<stop stop-color="#231F20"/>
<stop offset="0.14" stop-color="#201B1E"/>
<stop offset="0.28" stop-color="#170F1A"/>
<stop offset="0.38" stop-color="#0D0116"/>
<stop offset="0.41" stop-color="#0C041C"/>
<stop offset="0.45" stop-color="#0A0E2D"/>
<stop offset="0.49" stop-color="#081F4A"/>
<stop offset="0.54" stop-color="#043672"/>
<stop offset="0.59" stop-color="#0054A6"/>
<stop offset="0.66" stop-color="#005DAE"/>
<stop offset="0.8" stop-color="#0078C3"/>
<stop offset="0.96" stop-color="#00A3E6"/>
<stop offset="1" stop-color="#00AEEF"/>
</linearGradient>
<linearGradient id="paint1_linear_37_127" x1="-36.7435" y1="-105.295" x2="105.327" y2="-103.669" gradientUnits="userSpaceOnUse">
<stop stop-color="#231F20"/>
<stop offset="0.14" stop-color="#201B1E"/>
<stop offset="0.28" stop-color="#170F1A"/>
<stop offset="0.38" stop-color="#0D0116"/>
<stop offset="0.41" stop-color="#0C041C"/>
<stop offset="0.45" stop-color="#0A0E2D"/>
<stop offset="0.49" stop-color="#081F4A"/>
<stop offset="0.54" stop-color="#043672"/>
<stop offset="0.59" stop-color="#0054A6"/>
<stop offset="0.66" stop-color="#005DAE"/>
<stop offset="0.8" stop-color="#0078C3"/>
<stop offset="0.96" stop-color="#00A3E6"/>
<stop offset="1" stop-color="#00AEEF"/>
</linearGradient>
<linearGradient id="paint2_linear_37_127" x1="8.35709" y1="-29.0672" x2="90.7353" y2="-27.9406" gradientUnits="userSpaceOnUse">
<stop stop-color="#231F20"/>
<stop offset="0.14" stop-color="#201B1E"/>
<stop offset="0.28" stop-color="#170F1A"/>
<stop offset="0.38" stop-color="#0D0116"/>
<stop offset="0.41" stop-color="#0C041C"/>
<stop offset="0.45" stop-color="#0A0E2D"/>
<stop offset="0.49" stop-color="#081F4A"/>
<stop offset="0.54" stop-color="#043672"/>
<stop offset="0.59" stop-color="#0054A6"/>
<stop offset="0.66" stop-color="#005DAE"/>
<stop offset="0.8" stop-color="#0078C3"/>
<stop offset="0.96" stop-color="#00A3E6"/>
<stop offset="1" stop-color="#00AEEF"/>
</linearGradient>
<clipPath id="clip0_37_127">
<rect width="77" height="91" fill="white" transform="translate(26.5 19.5)"/>
</clipPath>
</defs>
</svg>
